<?xml version="1.0" encoding="utf-8"?><!-- Uploaded to: SVG Repo, www.svgrepo.com, Generator: SVG Repo Mixer Tools -->
<svg fill="#000000" width="800px" height="800px" viewBox="0 0 24 24" id="desk-lamp" data-name="Flat Line" xmlns="http://www.w3.org/2000/svg" class="icon flat-line"><path id="secondary" d="M16.11,6.53h0a4,4,0,0,1,4,4v2a0,0,0,0,1,0,0h-8a0,0,0,0,1,0,0v-2A4,4,0,0,1,16.11,6.53Z" transform="translate(-2.52 7.7) rotate(-25)" style="fill: rgb(44, 169, 188); stroke-width: 2;"></path><path id="primary" d="M6,21V7.78a1,1,0,0,1,.76-1L12,5.51" style="fill: none; stroke: rgb(0, 0, 0); stroke-linecap: round; stroke-linejoin: round; stroke-width: 2;"></path><path id="primary-2" data-name="primary" d="M16.82,6.33l-1-2.17a2,2,0,0,0-3.63,1.69l1,2.2" style="fill: none; stroke: rgb(0, 0, 0); stroke-linecap: round; stroke-linejoin: round; stroke-width: 2;"></path><path id="primary-3" data-name="primary" d="M3,21H13M20.15,8.75a4,4,0,0,0-5.31-1.94h0a4,4,0,0,0-1.94,5.32l.85,1.81L21,10.56Z" style="fill: none; stroke: rgb(0, 0, 0); stroke-linecap: round; stroke-linejoin: round; stroke-width: 2;"></path></svg>